<!--
  #%L
  Baleen 3
  %%
  Copyright (C) 2020 Dstl
  %%
  Licensed under the Apache License, Version 2.0 (the "License");
  you may not use this file except in compliance with the License.
  You may obtain a copy of the License at
  
       http://www.apache.org/licenses/LICENSE-2.0
  
  Unless required by applicable law or agreed to in writing, software
  distributed under the License is distributed on an "AS IS" BASIS,
  WITHOUT WARRANTIES OR CONDITIONS OF ANY KIND, either express or implied.
  See the License for the specific language governing permissions and
  limitations under the License.
  #L%
  -->
<svg width="512" height="248" viewBox="0 0 512 248" fill="none" xmlns="http://www.w3.org/2000/svg">
    <style type="text/css">
        .logo-bottom{fill:#B0B7BA;}
        .logo-top{fill:#025E7F;}
        .logo-square1{fill:#025E7F; fill-opacity:1;}
        .logo-square2{fill:#025E7F; fill-opacity:0;}
    </style>
    <path class="logo-top" d="M445.063 68.1567C353.192 68.1567 193.261 68.1377 143.512 68.1187C119.15 68.1187 95.7358 59.3166 77.7676 43.5376C98.3542 39.108 115.544 25.4963 124.899 7.22679C126.435 4.22307 124.178 0.630005 120.8 0.630005H5.43931C2.06196 0.630005 -0.19593 4.22307 1.34095 7.22679C11.7007 27.4354 31.6232 41.8836 55.1318 44.6022C56.2513 52.5868 57.7122 60.4763 59.6476 68.1567C63.8218 84.7342 69.8934 100.57 77.5589 115.437C94.5594 146.044 126.227 164.884 161.385 164.884H219.521C227.642 164.884 235.156 168.496 240.146 174.808C245.098 181.1 246.862 189.237 244.965 197.165L235.744 235.89C234.928 239.331 235.706 243.19 238.381 245.509C240.772 247.601 243.94 248.19 246.881 247.106C268.189 239.103 294.999 213.267 300.464 166.728L300.938 162.679L304.922 161.88C336.286 155.626 363.514 140.132 384.214 118.631C384.271 118.574 384.347 118.536 384.442 118.536H471.209C471.323 118.536 495.097 118.479 495.154 118.364C495.173 90.6276 472.746 68.1567 445.063 68.1567ZM419.012 100.095C415.084 100.095 411.897 96.9012 411.897 92.9659C411.897 89.0307 415.084 85.8368 419.012 85.8368C422.94 85.8368 426.127 89.0307 426.127 92.9659C426.127 96.9012 422.94 100.095 419.012 100.095Z" />
    <path class="logo-bottom" d="M166.11 207.621C184.457 218.039 204.418 225.89 225.517 230.738L229.957 212.088H199.39C188.271 212.107 177.058 210.491 166.11 207.621Z" />
    <path class="logo-bottom" d="M219.559 176.082H161.423C143.341 176.082 126.094 171.633 110.877 163.496C113.647 166.538 116.531 169.485 119.453 172.374C141.33 189.731 170.758 200.872 199.371 200.872H232.613L234.112 194.541C235.194 189.979 234.207 185.302 231.38 181.728C228.553 178.154 224.246 176.082 219.559 176.082Z" />
    <path class="logo-bottom" d="M304.41 198.647C333.364 194.161 360.535 182.944 384.252 165.797V134.258C364.14 152.432 339.246 165.721 311.089 172.051C309.685 181.747 307.37 190.587 304.41 198.647Z" />
    <path class="logo-bottom" d="M281.566 236.289C318.792 235.243 353.742 225.035 384.252 207.773V179.427C358.808 196.309 329.892 206.955 299.287 210.624C294.24 220.757 288.15 229.293 281.566 236.289Z" />
    <path class="logo-bottom" d="M384.252 245.414V220.415C360.041 233.247 333.611 241.726 306.421 245.414H384.252Z" />
    <path class="logo-square1" d="M450.528 149.048H430.605V169.01H450.528V149.048Z" />
    <path class="logo-square1" d="M463.809 194.332H437.284V220.909H463.809V194.332Z" />
    <path class="logo-square1" d="M511.851 173.135H483.276V201.765H511.851V173.135Z" />
    <path class="logo-square2" d="M450.528 149.048H430.605V169.01H450.528V149.048Z" />
    <path class="logo-square2" d="M506.808 152.74H480.282V179.317H506.808V152.74Z" />
    <path class="logo-square2" d="M482.278 203.765H453.704V232.396H482.278V203.765Z" />
</svg>
