<svg width="451" height="339" viewBox="0 0 451 339" fill="none" xmlns="http://www.w3.org/2000/svg">
<path d="M45.16 215.75V238.09H65.53C67.63 238.09 69.8 238.22 72.04 238.49C74.27 238.75 76.46 239.28 78.61 240.07C80.75 240.86 82.79 242 84.72 243.49C86.65 244.98 88.35 247 89.85 249.54C91.78 252.78 93.02 256.44 93.59 260.51C94.16 264.58 94.44 268.86 94.44 273.32C94.44 279.02 94.05 283.68 93.26 287.31C92.47 290.95 91.38 293.95 89.98 296.31C88.58 298.76 86.91 300.73 84.98 302.22C83.05 303.71 81.02 304.87 78.87 305.7C76.72 306.53 74.53 307.08 72.3 307.34C70.07 307.6 67.94 307.73 65.93 307.73H43.98C41.96 307.73 40.01 307.6 38.13 307.34C36.24 307.08 34.51 306.2 32.94 304.71C31.54 303.4 30.66 301.97 30.31 300.44C29.96 298.91 29.78 297.44 29.78 296.04V221.05L45.16 215.75ZM45.16 290.13C45.16 290.83 45.18 291.6 45.22 292.43C45.26 293.26 45.59 294.03 46.21 294.73C46.74 295.26 47.37 295.58 48.12 295.72C48.86 295.85 49.63 295.92 50.42 295.92H61.59C62.64 295.92 63.82 295.88 65.14 295.79C66.45 295.7 67.77 295.42 69.08 294.94C70.39 294.46 71.68 293.76 72.96 292.84C74.23 291.92 75.3 290.59 76.18 288.83C76.62 287.87 77.12 286.31 77.69 284.16C78.26 282.01 78.54 278.62 78.54 273.97C78.54 268.45 78.21 264.47 77.55 262.01C76.89 259.56 76.43 258.07 76.17 257.54C75.38 255.96 74.44 254.67 73.34 253.66C72.24 252.65 71.06 251.86 69.79 251.29C68.52 250.72 67.21 250.35 65.85 250.17C64.49 250 63.24 249.91 62.11 249.91H45.16V290.13V290.13Z" fill="#025E7F"/>
<path d="M147.27 238.09C150.25 238.09 153.01 238.57 155.55 239.54C158.09 240.5 160.15 241.82 161.73 243.48C163.22 244.97 164.45 247.09 165.41 249.85C166.37 252.61 166.86 255.96 166.86 259.9V296.04C166.86 297.27 166.71 298.76 166.4 300.51C166.09 302.26 165.33 303.75 164.1 304.98C162.87 306.21 161.38 306.97 159.63 307.28C157.88 307.59 156.17 307.74 154.51 307.74H121.26C119.33 307.74 117.25 307.61 115.02 307.35C112.79 307.09 110.66 306.08 108.65 304.33C107.25 303.1 106.13 301.68 105.3 300.06C104.47 298.44 103.85 296.75 103.46 295C103.06 293.25 102.82 291.54 102.74 289.87C102.65 288.21 102.61 286.72 102.61 285.4C102.61 282.33 102.94 279.31 103.6 276.33C104.26 273.35 105.9 270.72 108.53 268.45C110.72 266.52 112.93 265.36 115.17 264.97C117.4 264.58 119.44 264.38 121.28 264.38H151.51V259.52C151.51 258.47 151.4 257.37 151.18 256.23C150.96 255.09 150.41 254 149.54 252.95C148.49 251.64 147.28 250.8 145.93 250.45C144.57 250.1 143.28 249.92 142.05 249.92H112.47L107.75 238.09H147.27V238.09ZM125.84 276.2C125.31 276.2 124.46 276.31 123.28 276.53C122.1 276.75 121.06 277.43 120.19 278.57C119.93 278.92 119.58 279.62 119.14 280.67C118.7 281.72 118.48 283.52 118.48 286.06C118.48 287.11 118.59 288.43 118.81 290C119.03 291.58 119.62 292.85 120.59 293.81C121.12 294.34 121.84 294.82 122.76 295.26C123.68 295.7 124.62 295.92 125.59 295.92H147C147.44 295.92 147.99 295.9 148.64 295.86C149.3 295.82 149.89 295.58 150.42 295.14C150.95 294.7 151.25 294.24 151.34 293.76C151.43 293.28 151.47 292.77 151.47 292.25V276.22H125.84V276.2Z" fill="#025E7F"/>
<path d="M178.68 221.06L194.05 215.75V307.74H178.68V221.06Z" fill="#025E7F"/>
<path d="M230.32 307.75C228.57 307.75 226.73 307.69 224.8 307.55C222.87 307.42 220.99 307.05 219.15 306.43C217.31 305.81 215.51 304.92 213.76 303.74C212.01 302.56 210.43 300.96 209.03 298.94C206.75 295.61 205.35 291.71 204.82 287.24C204.29 282.77 204.03 278.22 204.03 273.57C204.03 270.33 204.09 267.29 204.23 264.44C204.36 261.59 204.71 258.97 205.28 256.55C205.85 254.14 206.68 251.93 207.78 249.91C208.87 247.9 210.39 246.06 212.31 244.39C214.24 242.73 216.36 241.46 218.68 240.58C221 239.7 223.34 239.07 225.71 238.67C228.08 238.28 230.35 238.04 232.54 237.95C234.73 237.86 236.66 237.82 238.32 237.82C242.44 237.82 246.49 238.06 250.48 238.54C254.46 239.02 258.08 240.27 261.32 242.28C263.34 243.6 264.98 245.08 266.25 246.75C267.52 248.42 268.53 250.23 269.27 252.2C270.01 254.17 270.52 256.23 270.78 258.38C271.04 260.53 271.17 262.7 271.17 264.89C271.17 266.64 270.99 268.46 270.64 270.34C270.29 272.23 269.37 273.91 267.88 275.4C266.83 276.45 265.67 277.15 264.4 277.5C263.13 277.85 261.79 278.03 260.39 278.03H219.91C219.91 279.52 220 281.23 220.17 283.16C220.35 285.09 220.56 286.58 220.83 287.63C221.36 289.47 222.1 290.94 223.06 292.03C224.02 293.13 225.16 293.96 226.48 294.53C227.79 295.1 229.17 295.47 230.62 295.65C232.06 295.83 233.49 295.91 234.89 295.91H268.93V307.74H230.32V307.75ZM251.87 266.22C253.36 266.22 254.3 265.78 254.7 264.91C255.09 264.03 255.29 263.11 255.29 262.15C255.29 259.96 254.83 258.08 253.91 256.5C252.99 254.92 251.96 253.7 250.82 252.82C248.89 251.33 246.77 250.43 244.45 250.13C242.13 249.82 239.87 249.67 237.68 249.67C236.63 249.67 235.49 249.69 234.26 249.74C233.03 249.78 231.76 249.94 230.45 250.2C229.14 250.46 227.84 250.92 226.57 251.58C225.3 252.24 224.14 253.13 223.09 254.27C221.51 256.02 220.61 257.89 220.4 259.86C220.19 261.83 220.03 263.96 219.94 266.23H251.87V266.22Z" fill="#025E7F"/>
<path d="M305.62 307.75C303.87 307.75 302.03 307.69 300.1 307.55C298.17 307.42 296.29 307.05 294.45 306.43C292.61 305.81 290.81 304.92 289.06 303.74C287.31 302.56 285.73 300.96 284.33 298.94C282.05 295.61 280.65 291.71 280.12 287.24C279.59 282.77 279.33 278.22 279.33 273.57C279.33 270.33 279.39 267.29 279.53 264.44C279.66 261.59 280.01 258.97 280.58 256.55C281.15 254.14 281.98 251.93 283.08 249.91C284.17 247.9 285.69 246.06 287.61 244.39C289.54 242.73 291.66 241.46 293.98 240.58C296.3 239.7 298.64 239.07 301.01 238.67C303.38 238.28 305.65 238.04 307.84 237.95C310.03 237.86 311.96 237.82 313.62 237.82C317.74 237.82 321.79 238.06 325.78 238.54C329.76 239.02 333.38 240.27 336.62 242.28C338.64 243.6 340.28 245.08 341.55 246.75C342.82 248.42 343.83 250.23 344.57 252.2C345.31 254.17 345.82 256.23 346.08 258.38C346.34 260.53 346.47 262.7 346.47 264.89C346.47 266.64 346.29 268.46 345.94 270.34C345.59 272.23 344.67 273.91 343.18 275.4C342.13 276.45 340.97 277.15 339.7 277.5C338.43 277.85 337.09 278.03 335.69 278.03H295.21C295.21 279.52 295.3 281.23 295.47 283.16C295.65 285.09 295.86 286.58 296.13 287.63C296.66 289.47 297.4 290.94 298.36 292.03C299.32 293.13 300.46 293.96 301.78 294.53C303.09 295.1 304.47 295.47 305.92 295.65C307.36 295.83 308.79 295.91 310.19 295.91H344.23V307.74H305.62V307.75ZM327.18 266.22C328.67 266.22 329.61 265.78 330.01 264.91C330.4 264.03 330.6 263.11 330.6 262.15C330.6 259.96 330.14 258.08 329.22 256.5C328.3 254.92 327.27 253.7 326.13 252.82C324.2 251.33 322.08 250.43 319.76 250.13C317.44 249.82 315.18 249.67 312.99 249.67C311.94 249.67 310.8 249.69 309.57 249.74C308.34 249.78 307.07 249.94 305.76 250.2C304.45 250.46 303.15 250.92 301.88 251.58C300.61 252.24 299.45 253.13 298.4 254.27C296.82 256.02 295.92 257.89 295.71 259.86C295.5 261.83 295.34 263.96 295.25 266.23H327.18V266.22Z" fill="#025E7F"/>
<path d="M356.48 248.74C356.48 247.69 356.59 246.46 356.81 245.06C357.03 243.66 357.66 242.39 358.72 241.25C360.21 239.59 361.98 238.64 364.04 238.42C366.1 238.2 367.87 238.09 369.36 238.09H393.93C397.61 238.09 401.07 238.4 404.31 239.01C407.55 239.62 410.57 241.2 413.38 243.74C415.22 245.41 416.82 247.64 418.18 250.44C419.54 253.24 420.22 257.05 420.22 261.87V307.74H404.84V266.48C404.84 264.2 404.66 261.99 404.31 259.84C403.96 257.69 403.17 255.79 401.94 254.12C400.8 252.63 399.38 251.56 397.67 250.9C395.96 250.24 393.7 249.91 390.9 249.91H375.26C374.82 249.91 374.38 249.93 373.95 249.98C373.52 250.03 373.07 250.27 372.64 250.7C372.2 251.14 371.96 251.62 371.92 252.14C371.87 252.67 371.85 253.15 371.85 253.59V307.73H356.48V248.74V248.74Z" fill="#025E7F"/>
<path d="M176.95 137.88C186.62 143.36 197.14 147.49 208.26 150.04L210.6 140.23H194.49C188.63 140.24 182.72 139.39 176.95 137.88Z" fill="#B0B7BA"/>
<path d="M205.12 121.29H174.48C164.95 121.29 155.86 118.95 147.84 114.67C149.3 116.27 150.82 117.82 152.36 119.34C163.89 128.47 179.4 134.33 194.48 134.33H212L212.79 131C213.36 128.6 212.84 126.14 211.35 124.26C209.86 122.38 207.59 121.29 205.12 121.29Z" fill="#B0B7BA"/>
<path d="M249.84 133.16C265.1 130.8 279.42 124.9 291.92 115.88V99.29C281.32 108.85 268.2 115.84 253.36 119.17C252.62 124.27 251.4 128.92 249.84 133.16Z" fill="#B0B7BA"/>
<path d="M323.97 64.52C275.55 64.52 191.26 64.51 165.04 64.5C152.2 64.5 139.86 59.87 130.39 51.57C141.24 49.24 150.3 42.08 155.23 32.47C156.04 30.89 154.85 29 153.07 29H92.27C90.49 29 89.3 30.89 90.11 32.47C95.57 43.1 106.07 50.7 118.46 52.13C119.05 56.33 119.82 60.48 120.84 64.52C123.04 73.24 126.24 81.57 130.28 89.39C139.24 105.49 155.93 115.4 174.46 115.4H205.1C209.38 115.4 213.34 117.3 215.97 120.62C218.58 123.93 219.51 128.21 218.51 132.38L213.65 152.75C213.22 154.56 213.63 156.59 215.04 157.81C216.3 158.91 217.97 159.22 219.52 158.65C230.75 154.44 244.88 140.85 247.76 116.37L248.01 114.24L250.11 113.82C266.64 110.53 280.99 102.38 291.9 91.07C291.93 91.04 291.97 91.02 292.02 91.02H337.75C337.81 91.02 350.34 90.99 350.37 90.93C350.38 76.34 338.56 64.52 323.97 64.52ZM310.24 81.32C308.17 81.32 306.49 79.64 306.49 77.57C306.49 75.5 308.17 73.82 310.24 73.82C312.31 73.82 313.99 75.5 313.99 77.57C313.99 79.64 312.31 81.32 310.24 81.32Z" fill="#025E7F"/>
<path d="M326.85 107.07H316.35V117.57H326.85V107.07Z" fill="#025E7F"/>
<path d="M333.85 130.89H319.87V144.87H333.85V130.89Z" fill="#025E7F"/>
<path d="M359.17 119.74H344.11V134.8H359.17V119.74Z" fill="#025E7F"/>
<path d="M237.8 152.96C257.42 152.41 275.84 147.04 291.92 137.96V123.05C278.51 131.93 263.27 137.53 247.14 139.46C244.48 144.79 241.27 149.28 237.8 152.96Z" fill="#B0B7BA"/>
<path d="M291.92 157.76V144.61C279.16 151.36 265.23 155.82 250.9 157.76H291.92Z" fill="#B0B7BA"/>
</svg>
