<?xml version="1.0" encoding="utf-8" ?>
<!--
  #%L
  Baleen 3
  %%
  Copyright (C) 2020 Dstl
  %%
  Licensed under the Apache License, Version 2.0 (the "License");
  you may not use this file except in compliance with the License.
  You may obtain a copy of the License at
  
       http://www.apache.org/licenses/LICENSE-2.0
  
  Unless required by applicable law or agreed to in writing, software
  distributed under the License is distributed on an "AS IS" BASIS,
  WITHOUT WARRANTIES OR CONDITIONS OF ANY KIND, either express or implied.
  See the License for the specific language governing permissions and
  limitations under the License.
  #L%
  -->

<svg version="1.1" id="Layer_1" xmlns="http://www.w3.org/2000/svg" xmlns:xlink="http://www.w3.org/1999/xlink" x="0px" y="0px" viewBox="0 0 863.89 216.25" style="enable-background:new 0 0 863.89 216.25;" xml:space="preserve">
	<style type="text/css">
	.logo-bottom{fill:#B0B7BA;}
	.logo-top{fill:#025E7F;}
</style>
	<g>
		<path class="logo-bottom" d="M115.33,150.01c9.22,5.22,19.25,9.16,29.86,11.6l2.23-9.35h-15.36C126.48,152.25,120.84,151.44,115.33,150.01z
		" />
		<path class="logo-bottom" d="M142.19,134.19l-29.21,0c-9.08,0-17.75-2.24-25.4-6.31c1.39,1.53,2.84,3.01,4.31,4.46
		c11,8.71,25.79,14.3,40.17,14.3h16.7l0.76-3.17c0.54-2.29,0.05-4.63-1.37-6.43C146.72,135.22,144.55,134.19,142.19,134.19z" />
		<path class="logo-bottom" d="M184.84,145.5c14.55-2.25,28.21-7.88,40.12-16.48v-15.82c-10.11,9.11-22.62,15.78-36.77,18.95
		C187.49,137.03,186.32,141.46,184.84,145.5z" />
		<path class="logo-top" d="M255.53,80.05c-46.17,0-126.55-0.01-151.55-0.02c-12.24,0-24.01-4.41-33.04-12.33
		c10.35-2.22,18.98-9.04,23.69-18.22c0.78-1.51-0.36-3.31-2.06-3.31H34.6c-1.7,0-2.84,1.8-2.06,3.31
		c5.21,10.14,15.22,17.39,27.03,18.74c0.56,4.01,1.3,7.96,2.27,11.82c2.1,8.32,5.15,16.26,9,23.72c8.54,15.35,24.45,24.8,42.13,24.8
		l29.21,0h0c4.08,0,7.86,1.82,10.36,4.98c2.49,3.15,3.37,7.24,2.43,11.21l-4.63,19.42c-0.41,1.73-0.02,3.66,1.32,4.82
		c1.21,1.05,2.8,1.34,4.27,0.8c10.71-4.01,24.18-16.97,26.93-40.31l0.24-2.03l2-0.4c15.77-3.14,29.45-10.9,39.84-21.69
		c0.03-0.03,0.07-0.05,0.11-0.05h43.6c0.06,0,12.01-0.03,12.03-0.09C280.71,91.33,269.44,80.05,255.53,80.05z M242.43,96.07
		c-1.98,0-3.58-1.6-3.58-3.58s1.6-3.58,3.58-3.58c1.98,0,3.58,1.6,3.58,3.58S244.41,96.07,242.43,96.07z" />
		<rect x="248.26" y="120.63" class="logo-top" width="10.02" height="10.02" />
		<rect x="251.61" y="143.34" class="logo-top" width="13.33" height="13.33" />
		<rect x="274.73" y="132.71" class="logo-top" width="14.36" height="14.36" />
		<path class="logo-bottom" d="M173.36,164.38c18.71-0.52,36.27-5.65,51.6-14.31v-14.22c-12.79,8.47-27.32,13.81-42.7,15.65
		C179.73,156.6,176.66,160.87,173.36,164.38z" />
		<path class="logo-bottom" d="M224.96,168.96v-12.54c-12.16,6.44-25.45,10.69-39.11,12.54H224.96z" />
	</g>
	<g>
		<path class="logo-top" d="M354.39,51.91v28.43h25.92c2.68,0,5.43,0.17,8.28,0.5c2.84,0.33,5.63,1,8.36,2c2.73,1.01,5.32,2.46,7.77,4.35
		c2.45,1.9,4.62,4.46,6.52,7.69c2.45,4.13,4.04,8.78,4.76,13.96c0.72,5.18,1.09,10.62,1.09,16.3c0,7.25-0.5,13.18-1.51,17.81
		c-1,4.63-2.4,8.44-4.18,11.46c-1.78,3.12-3.9,5.63-6.36,7.52c-2.45,1.9-5.04,3.38-7.77,4.43c-2.73,1.06-5.52,1.76-8.36,2.09
		c-2.84,0.33-5.55,0.5-8.11,0.5h-27.92c-2.57,0-5.05-0.17-7.44-0.5c-2.4-0.33-4.6-1.45-6.61-3.34c-1.78-1.67-2.9-3.48-3.34-5.44
		c-0.45-1.95-0.67-3.82-0.67-5.6V58.66L354.39,51.91z M354.39,146.55c0,0.89,0.03,1.87,0.08,2.93c0.06,1.06,0.47,2.04,1.25,2.93
		c0.67,0.67,1.48,1.09,2.43,1.25c0.94,0.17,1.92,0.25,2.92,0.25h14.21c1.34,0,2.84-0.05,4.52-0.17c1.67-0.11,3.34-0.47,5.02-1.09
		c1.67-0.61,3.31-1.5,4.93-2.68c1.61-1.17,2.98-2.87,4.1-5.1c0.56-1.22,1.2-3.2,1.92-5.94c0.72-2.73,1.09-7.05,1.09-12.96
		c0-7.02-0.42-12.09-1.25-15.22c-0.84-3.12-1.42-5.02-1.76-5.68c-1-2.01-2.2-3.65-3.6-4.93c-1.39-1.28-2.9-2.29-4.52-3.01
		c-1.61-0.72-3.29-1.2-5.02-1.42c-1.73-0.22-3.32-0.33-4.76-0.33h-21.57V146.55z" />
		<path class="logo-top" d="M484.31,80.34c3.79,0,7.3,0.62,10.53,1.84c3.23,1.23,5.85,2.9,7.86,5.02c1.9,1.9,3.45,4.6,4.68,8.11
		c1.22,3.51,1.84,7.77,1.84,12.79v45.98c0,1.56-0.2,3.46-0.59,5.69c-0.39,2.23-1.37,4.13-2.92,5.68c-1.56,1.56-3.46,2.54-5.69,2.93
		s-4.4,0.58-6.52,0.58H451.2c-2.45,0-5.1-0.17-7.94-0.5c-2.84-0.33-5.55-1.61-8.11-3.84c-1.78-1.56-3.21-3.37-4.26-5.44
		c-1.06-2.06-1.84-4.21-2.34-6.44c-0.5-2.23-0.81-4.4-0.92-6.52c-0.11-2.12-0.17-4.01-0.17-5.68c0-3.9,0.42-7.75,1.25-11.54
		c0.84-3.79,2.92-7.13,6.27-10.03c2.78-2.45,5.6-3.93,8.44-4.43c2.84-0.5,5.43-0.75,7.77-0.75h38.46v-6.19
		c0-1.34-0.14-2.73-0.42-4.18c-0.28-1.45-0.98-2.84-2.09-4.18c-1.34-1.67-2.87-2.73-4.6-3.18c-1.73-0.45-3.37-0.67-4.93-0.67h-37.64
		l-6-15.05H484.31z M457.05,128.83c-0.67,0-1.76,0.14-3.26,0.42c-1.51,0.28-2.82,1.15-3.93,2.59c-0.34,0.45-0.78,1.34-1.34,2.68
		c-0.56,1.34-0.84,3.62-0.84,6.85c0,1.34,0.14,3.01,0.42,5.02c0.28,2.01,1.03,3.62,2.26,4.85c0.67,0.67,1.59,1.28,2.76,1.84
		c1.17,0.56,2.37,0.84,3.6,0.84h27.26c0.56,0,1.25-0.03,2.09-0.08c0.84-0.06,1.59-0.36,2.26-0.92c0.67-0.56,1.06-1.14,1.17-1.76
		c0.11-0.61,0.17-1.25,0.17-1.93v-20.4H457.05z" />
		<path class="logo-top" d="M524.27,58.66l19.56-6.75v117.05h-19.56V58.66z" />
		<path class="logo-top" d="M589.98,168.96c-2.23,0-4.57-0.08-7.02-0.25s-4.85-0.64-7.19-1.42c-2.34-0.78-4.63-1.93-6.85-3.43
		c-2.23-1.51-4.24-3.54-6.02-6.1c-2.9-4.24-4.68-9.2-5.35-14.88c-0.67-5.68-1-11.48-1-17.39c0-4.12,0.08-8,0.25-11.62
		c0.17-3.62,0.61-6.96,1.34-10.03c0.72-3.06,1.78-5.88,3.18-8.44c1.39-2.56,3.32-4.9,5.77-7.02c2.45-2.12,5.15-3.73,8.11-4.85
		c2.95-1.11,5.93-1.93,8.95-2.43c3.01-0.5,5.91-0.81,8.69-0.92c2.79-0.11,5.24-0.17,7.36-0.17c5.24,0,10.39,0.31,15.47,0.92
		c5.07,0.62,9.67,2.2,13.79,4.76c2.56,1.67,4.65,3.57,6.27,5.69c1.61,2.12,2.9,4.43,3.85,6.94c0.95,2.51,1.59,5.13,1.92,7.86
		c0.33,2.73,0.5,5.49,0.5,8.28c0,2.23-0.22,4.54-0.67,6.94c-0.45,2.4-1.62,4.54-3.51,6.44c-1.34,1.34-2.82,2.23-4.43,2.68
		c-1.62,0.45-3.32,0.67-5.1,0.67h-51.5c0,1.9,0.11,4.07,0.33,6.52c0.22,2.45,0.5,4.35,0.84,5.68c0.67,2.34,1.61,4.21,2.84,5.6
		c1.22,1.39,2.68,2.45,4.35,3.18c1.67,0.73,3.43,1.2,5.27,1.42c1.84,0.23,3.65,0.33,5.43,0.33h43.31v15.05H589.98z M617.4,116.12
		c1.89,0,3.09-0.56,3.6-1.67c0.5-1.11,0.75-2.29,0.75-3.51c0-2.78-0.58-5.18-1.76-7.19c-1.17-2.01-2.48-3.57-3.93-4.68
		c-2.45-1.9-5.16-3.04-8.11-3.43c-2.95-0.39-5.83-0.59-8.61-0.59c-1.34,0-2.79,0.03-4.35,0.08c-1.56,0.06-3.18,0.25-4.85,0.58
		c-1.67,0.34-3.32,0.92-4.93,1.76c-1.62,0.84-3.09,1.98-4.43,3.43c-2.01,2.23-3.15,4.6-3.43,7.11c-0.28,2.51-0.47,5.21-0.58,8.11
		H617.4z" />
		<path class="logo-top" d="M685.79,168.96c-2.23,0-4.57-0.08-7.02-0.25s-4.85-0.64-7.19-1.42c-2.34-0.78-4.63-1.93-6.85-3.43
		c-2.23-1.51-4.24-3.54-6.02-6.1c-2.9-4.24-4.68-9.2-5.35-14.88c-0.67-5.68-1-11.48-1-17.39c0-4.12,0.08-8,0.25-11.62
		c0.17-3.62,0.61-6.96,1.34-10.03c0.72-3.06,1.78-5.88,3.18-8.44c1.39-2.56,3.32-4.9,5.77-7.02c2.45-2.12,5.15-3.73,8.11-4.85
		c2.95-1.11,5.93-1.93,8.95-2.43c3.01-0.5,5.91-0.81,8.69-0.92c2.79-0.11,5.24-0.17,7.36-0.17c5.24,0,10.39,0.31,15.47,0.92
		c5.07,0.62,9.67,2.2,13.79,4.76c2.56,1.67,4.65,3.57,6.27,5.69c1.61,2.12,2.9,4.43,3.85,6.94c0.95,2.51,1.59,5.13,1.92,7.86
		c0.33,2.73,0.5,5.49,0.5,8.28c0,2.23-0.22,4.54-0.67,6.94c-0.45,2.4-1.62,4.54-3.51,6.44c-1.34,1.34-2.82,2.23-4.43,2.68
		c-1.62,0.45-3.32,0.67-5.1,0.67h-51.5c0,1.9,0.11,4.07,0.33,6.52c0.22,2.45,0.5,4.35,0.84,5.68c0.67,2.34,1.61,4.21,2.84,5.6
		c1.22,1.39,2.68,2.45,4.35,3.18c1.67,0.73,3.43,1.2,5.27,1.42c1.84,0.23,3.65,0.33,5.43,0.33h43.31v15.05H685.79z M713.21,116.12
		c1.89,0,3.09-0.56,3.6-1.67c0.5-1.11,0.75-2.29,0.75-3.51c0-2.78-0.58-5.18-1.76-7.19c-1.17-2.01-2.48-3.57-3.93-4.68
		c-2.45-1.9-5.16-3.04-8.11-3.43c-2.95-0.39-5.83-0.59-8.61-0.59c-1.34,0-2.79,0.03-4.35,0.08c-1.56,0.06-3.18,0.25-4.85,0.58
		c-1.67,0.34-3.32,0.92-4.93,1.76c-1.62,0.84-3.09,1.98-4.43,3.43c-2.01,2.23-3.15,4.6-3.43,7.11c-0.28,2.51-0.47,5.21-0.58,8.11
		H713.21z" />
		<path class="logo-top" d="M750.5,93.88c0-1.34,0.14-2.9,0.42-4.68c0.28-1.78,1.09-3.4,2.43-4.85c1.89-2.12,4.15-3.32,6.77-3.6
		c2.62-0.28,4.88-0.42,6.77-0.42h31.27c4.68,0,9.09,0.39,13.21,1.17c4.12,0.78,7.97,2.79,11.54,6.02c2.34,2.12,4.37,4.96,6.1,8.53
		c1.73,3.57,2.59,8.42,2.59,14.55v58.36h-19.56v-52.5c0-2.9-0.23-5.71-0.67-8.44c-0.45-2.73-1.45-5.16-3.01-7.28
		c-1.45-1.89-3.26-3.26-5.43-4.1c-2.17-0.84-5.05-1.25-8.61-1.25h-19.9c-0.56,0-1.12,0.03-1.67,0.08c-0.56,0.06-1.11,0.36-1.67,0.92
		c-0.56,0.56-0.86,1.17-0.92,1.84c-0.06,0.67-0.08,1.28-0.08,1.84v68.89H750.5V93.88z" />
	</g>
</svg>
