<?xml version="1.0" encoding="utf-8" ?>
<!--
  #%L
  Baleen 3
  %%
  Copyright (C) 2020 Dstl
  %%
  Licensed under the Apache License, Version 2.0 (the "License");
  you may not use this file except in compliance with the License.
  You may obtain a copy of the License at
  
       http://www.apache.org/licenses/LICENSE-2.0
  
  Unless required by applicable law or agreed to in writing, software
  distributed under the License is distributed on an "AS IS" BASIS,
  WITHOUT WARRANTIES OR CONDITIONS OF ANY KIND, either express or implied.
  See the License for the specific language governing permissions and
  limitations under the License.
  #L%
  -->

<svg version="1.1" id="Layer_1" xmlns="http://www.w3.org/2000/svg" xmlns:xlink="http://www.w3.org/1999/xlink" x="0px" y="0px" viewBox="0 0 576 576" style="enable-background:new 0 0 576 576;" xml:space="preserve">
	<style type="text/css">
	.logo-top{fill:#025E7F;}
	.logo-bottom{fill:#B0B7BA;}
</style>
	<g>
		<path class="logo-top" d="M108.16,335.38v22.34h20.37c2.1,0,4.27,0.13,6.51,0.4c2.23,0.26,4.42,0.79,6.57,1.58
		c2.14,0.79,4.18,1.93,6.11,3.42c1.93,1.49,3.63,3.51,5.13,6.05c1.93,3.24,3.17,6.9,3.74,10.97c0.57,4.07,0.85,8.35,0.85,12.81
		c0,5.7-0.39,10.36-1.18,13.99c-0.79,3.64-1.88,6.64-3.28,9c-1.4,2.45-3.07,4.42-5,5.91c-1.93,1.49-3.96,2.65-6.11,3.48
		c-2.15,0.83-4.34,1.38-6.57,1.64c-2.23,0.26-4.36,0.39-6.37,0.39h-21.95c-2.02,0-3.97-0.13-5.85-0.39
		c-1.89-0.26-3.62-1.14-5.19-2.63c-1.4-1.31-2.28-2.74-2.63-4.27c-0.35-1.53-0.53-3-0.53-4.4v-74.99L108.16,335.38z M108.16,409.76
		c0,0.7,0.02,1.47,0.06,2.3c0.04,0.83,0.37,1.6,0.99,2.3c0.53,0.53,1.16,0.85,1.91,0.99c0.74,0.13,1.51,0.2,2.3,0.2h11.17
		c1.05,0,2.23-0.04,3.55-0.13c1.31-0.09,2.63-0.37,3.94-0.85c1.31-0.48,2.6-1.18,3.88-2.1c1.27-0.92,2.34-2.25,3.22-4.01
		c0.44-0.96,0.94-2.52,1.51-4.67c0.57-2.15,0.85-5.54,0.85-10.19c0-5.52-0.33-9.5-0.99-11.96c-0.66-2.45-1.12-3.94-1.38-4.47
		c-0.79-1.58-1.73-2.87-2.83-3.88c-1.1-1.01-2.28-1.8-3.55-2.37c-1.27-0.57-2.58-0.94-3.94-1.12c-1.36-0.17-2.61-0.26-3.74-0.26
		h-16.95V409.76z" />
		<path class="logo-top" d="M210.27,357.72c2.98,0,5.74,0.48,8.28,1.45c2.54,0.96,4.6,2.28,6.18,3.94c1.49,1.49,2.72,3.61,3.68,6.37
		c0.96,2.76,1.45,6.11,1.45,10.05v36.14c0,1.23-0.15,2.72-0.46,4.47c-0.31,1.75-1.07,3.24-2.3,4.47c-1.23,1.23-2.72,1.99-4.47,2.3
		c-1.75,0.31-3.46,0.46-5.12,0.46h-33.25c-1.93,0-4.01-0.13-6.24-0.39c-2.23-0.26-4.36-1.27-6.37-3.02
		c-1.4-1.23-2.52-2.65-3.35-4.27c-0.83-1.62-1.45-3.31-1.84-5.06c-0.4-1.75-0.64-3.46-0.72-5.13c-0.09-1.66-0.13-3.15-0.13-4.47
		c0-3.07,0.33-6.09,0.99-9.07c0.66-2.98,2.3-5.61,4.93-7.88c2.19-1.93,4.4-3.09,6.64-3.48c2.23-0.39,4.27-0.59,6.11-0.59h30.23
		v-4.86c0-1.05-0.11-2.15-0.33-3.29c-0.22-1.14-0.77-2.23-1.64-3.28c-1.05-1.31-2.26-2.15-3.61-2.5c-1.36-0.35-2.65-0.53-3.88-0.53
		h-29.58l-4.72-11.83H210.27z M188.84,395.83c-0.53,0-1.38,0.11-2.56,0.33c-1.18,0.22-2.22,0.9-3.09,2.04
		c-0.26,0.35-0.61,1.05-1.05,2.1c-0.44,1.05-0.66,2.85-0.66,5.39c0,1.05,0.11,2.37,0.33,3.94c0.22,1.58,0.81,2.85,1.78,3.81
		c0.53,0.53,1.25,1.01,2.17,1.45c0.92,0.44,1.86,0.66,2.83,0.66H210c0.44,0,0.99-0.02,1.64-0.06c0.66-0.04,1.25-0.28,1.78-0.72
		c0.53-0.44,0.83-0.9,0.92-1.38c0.09-0.48,0.13-0.99,0.13-1.51v-16.03H188.84z" />
		<path class="logo-top" d="M241.68,340.69l15.37-5.31v91.99h-15.37V340.69z" />
		<path class="logo-top" d="M293.32,427.38c-1.75,0-3.59-0.06-5.52-0.2c-1.93-0.13-3.81-0.5-5.65-1.12s-3.64-1.51-5.39-2.69
		c-1.75-1.18-3.33-2.78-4.73-4.8c-2.28-3.33-3.68-7.23-4.21-11.7c-0.53-4.47-0.79-9.02-0.79-13.67c0-3.24,0.06-6.28,0.2-9.13
		c0.13-2.85,0.48-5.47,1.05-7.89c0.57-2.41,1.4-4.62,2.5-6.64c1.09-2.01,2.61-3.85,4.53-5.52c1.93-1.66,4.05-2.93,6.37-3.81
		c2.32-0.88,4.66-1.51,7.03-1.91c2.37-0.39,4.64-0.63,6.83-0.72c2.19-0.09,4.12-0.13,5.78-0.13c4.12,0,8.17,0.24,12.16,0.72
		c3.98,0.48,7.6,1.73,10.84,3.74c2.02,1.32,3.66,2.8,4.93,4.47c1.27,1.67,2.28,3.48,3.02,5.45c0.74,1.97,1.25,4.03,1.51,6.18
		c0.26,2.15,0.39,4.32,0.39,6.51c0,1.75-0.18,3.57-0.53,5.45c-0.35,1.89-1.27,3.57-2.76,5.06c-1.05,1.05-2.21,1.75-3.48,2.1
		c-1.27,0.35-2.61,0.53-4.01,0.53h-40.48c0,1.49,0.09,3.2,0.26,5.13c0.18,1.93,0.39,3.42,0.66,4.47c0.53,1.84,1.27,3.31,2.23,4.4
		c0.96,1.1,2.1,1.93,3.42,2.5c1.31,0.57,2.69,0.94,4.14,1.12c1.44,0.18,2.87,0.26,4.27,0.26h34.04v11.83H293.32z M314.87,385.85
		c1.49,0,2.43-0.44,2.83-1.31c0.39-0.88,0.59-1.8,0.59-2.76c0-2.19-0.46-4.07-1.38-5.65c-0.92-1.58-1.95-2.8-3.09-3.68
		c-1.93-1.49-4.05-2.39-6.37-2.69c-2.32-0.31-4.58-0.46-6.77-0.46c-1.05,0-2.19,0.02-3.42,0.07c-1.23,0.04-2.5,0.2-3.81,0.46
		c-1.31,0.26-2.61,0.72-3.88,1.38c-1.27,0.66-2.43,1.55-3.48,2.69c-1.58,1.75-2.48,3.62-2.69,5.59s-0.37,4.1-0.46,6.37H314.87z" />
		<path class="logo-top" d="M368.62,427.38c-1.75,0-3.59-0.06-5.52-0.2c-1.93-0.13-3.81-0.5-5.65-1.12s-3.64-1.51-5.39-2.69
		c-1.75-1.18-3.33-2.78-4.73-4.8c-2.28-3.33-3.68-7.23-4.21-11.7c-0.53-4.47-0.79-9.02-0.79-13.67c0-3.24,0.06-6.28,0.2-9.13
		c0.13-2.85,0.48-5.47,1.05-7.89c0.57-2.41,1.4-4.62,2.5-6.64c1.09-2.01,2.61-3.85,4.53-5.52c1.93-1.66,4.05-2.93,6.37-3.81
		c2.32-0.88,4.66-1.51,7.03-1.91c2.37-0.39,4.64-0.63,6.83-0.72c2.19-0.09,4.12-0.13,5.78-0.13c4.12,0,8.17,0.24,12.16,0.72
		c3.98,0.48,7.6,1.73,10.84,3.74c2.02,1.32,3.66,2.8,4.93,4.47c1.27,1.67,2.28,3.48,3.02,5.45c0.74,1.97,1.25,4.03,1.51,6.18
		c0.26,2.15,0.39,4.32,0.39,6.51c0,1.75-0.18,3.57-0.53,5.45c-0.35,1.89-1.27,3.57-2.76,5.06c-1.05,1.05-2.21,1.75-3.48,2.1
		c-1.27,0.35-2.61,0.53-4.01,0.53h-40.48c0,1.49,0.09,3.2,0.26,5.13c0.18,1.93,0.39,3.42,0.66,4.47c0.53,1.84,1.27,3.31,2.23,4.4
		c0.96,1.1,2.1,1.93,3.42,2.5c1.31,0.57,2.69,0.94,4.14,1.12c1.44,0.18,2.87,0.26,4.27,0.26h34.04v11.83H368.62z M390.18,385.85
		c1.49,0,2.43-0.44,2.83-1.31c0.39-0.88,0.59-1.8,0.59-2.76c0-2.19-0.46-4.07-1.38-5.65c-0.92-1.58-1.95-2.8-3.09-3.68
		c-1.93-1.49-4.05-2.39-6.37-2.69c-2.32-0.31-4.58-0.46-6.77-0.46c-1.05,0-2.19,0.02-3.42,0.07c-1.23,0.04-2.5,0.2-3.81,0.46
		c-1.31,0.26-2.61,0.72-3.88,1.38c-1.27,0.66-2.43,1.55-3.48,2.69c-1.58,1.75-2.48,3.62-2.69,5.59s-0.37,4.1-0.46,6.37H390.18z" />
		<path class="logo-top" d="M419.48,368.37c0-1.05,0.11-2.28,0.33-3.68c0.22-1.4,0.85-2.67,1.91-3.81c1.49-1.66,3.26-2.61,5.32-2.83
		c2.06-0.22,3.83-0.33,5.32-0.33h24.57c3.68,0,7.14,0.31,10.38,0.92c3.24,0.61,6.26,2.19,9.07,4.73c1.84,1.67,3.44,3.9,4.8,6.7
		c1.36,2.8,2.04,6.61,2.04,11.43v45.87h-15.38v-41.26c0-2.28-0.18-4.49-0.53-6.64c-0.35-2.15-1.14-4.05-2.37-5.72
		c-1.14-1.49-2.56-2.56-4.27-3.22c-1.71-0.66-3.97-0.99-6.77-0.99h-15.64c-0.44,0-0.88,0.02-1.31,0.07s-0.88,0.29-1.31,0.72
		c-0.44,0.44-0.68,0.92-0.72,1.44c-0.05,0.53-0.07,1.01-0.07,1.45v54.14h-15.37V368.37z" />
	</g>
	<g>
		<path class="logo-bottom" d="M239.95,257.51c9.67,5.48,20.19,9.61,31.31,12.16l2.34-9.81h-16.11C251.63,259.87,245.72,259.02,239.95,257.51
		z" />
		<path class="logo-bottom" d="M268.12,240.92l-30.64,0c-9.53,0-18.62-2.34-26.64-6.62c1.46,1.6,2.98,3.15,4.52,4.67
		c11.53,9.13,27.04,14.99,42.12,14.99H275l0.79-3.33c0.57-2.4,0.05-4.86-1.44-6.74C272.86,242.01,270.59,240.92,268.12,240.92z" />
		<path class="logo-bottom" d="M312.84,252.79c15.26-2.36,29.58-8.26,42.08-17.28v-16.59c-10.6,9.56-23.72,16.55-38.56,19.88
		C315.62,243.9,314.4,248.55,312.84,252.79z" />
		<path class="logo-top" d="M386.97,184.15c-48.42,0-132.71-0.01-158.93-0.02c-12.84,0-25.18-4.63-34.65-12.93
		c10.85-2.33,19.91-9.49,24.84-19.1c0.81-1.58-0.38-3.47-2.16-3.47h-60.8c-1.78,0-2.97,1.89-2.16,3.47
		c5.46,10.63,15.96,18.23,28.35,19.66c0.59,4.2,1.36,8.35,2.38,12.39c2.2,8.72,5.4,17.05,9.44,24.87
		c8.96,16.1,25.65,26.01,44.18,26.01l30.64,0h0c4.28,0,8.24,1.9,10.87,5.22c2.61,3.31,3.54,7.59,2.54,11.76l-4.86,20.37
		c-0.43,1.81-0.02,3.84,1.39,5.06c1.26,1.1,2.93,1.41,4.48,0.84c11.23-4.21,25.36-17.8,28.24-42.28l0.25-2.13l2.1-0.42
		c16.53-3.29,30.88-11.44,41.79-22.75c0.03-0.03,0.07-0.05,0.12-0.05h45.73c0.06,0,12.59-0.03,12.62-0.09
		C413.38,195.97,401.56,184.15,386.97,184.15z M373.24,200.95c-2.07,0-3.75-1.68-3.75-3.75s1.68-3.75,3.75-3.75
		c2.07,0,3.75,1.68,3.75,3.75S375.31,200.95,373.24,200.95z" />
		<rect x="379.35" y="226.7" class="logo-top" width="10.5" height="10.5" />
		<rect x="382.87" y="250.52" class="logo-top" width="13.98" height="13.98" />
		<rect x="407.11" y="239.37" class="logo-top" width="15.06" height="15.06" />
		<g>
			<path class="logo-bottom" d="M300.8,272.59c19.62-0.55,38.04-5.92,54.12-15v-14.91c-13.41,8.88-28.65,14.48-44.78,16.41
			C307.48,264.42,304.27,268.91,300.8,272.59z" />
		</g>
		<path class="logo-bottom" d="M354.92,277.39v-13.15c-12.76,6.75-26.69,11.21-41.02,13.15H354.92z" />
	</g>
</svg>
