<!--
  #%L
  Baleen 3
  %%
  Copyright (C) 2020 Dstl
  %%
  Licensed under the Apache License, Version 2.0 (the "License");
  you may not use this file except in compliance with the License.
  You may obtain a copy of the License at
  
       http://www.apache.org/licenses/LICENSE-2.0
  
  Unless required by applicable law or agreed to in writing, software
  distributed under the License is distributed on an "AS IS" BASIS,
  WITHOUT WARRANTIES OR CONDITIONS OF ANY KIND, either express or implied.
  See the License for the specific language governing permissions and
  limitations under the License.
  #L%
  -->
<svg width="512" height="248" viewBox="0 0 512 248" fill="none" xmlns="http://www.w3.org/2000/svg">
    <style type="text/css">
  .logo-bottom{fill:#B0B7BA;}
  .logo-top{fill:#025E7F;}
</style>
    <path class="logo-top" d="M444.038 67.3122C352.357 67.3122 192.748 67.3005 143.104 67.2771C118.791 67.2654 95.4262 58.5074 77.4928 42.7829C98.0366 38.3688 115.186 24.822 124.539 6.6036C126.072 3.60622 123.813 0.0351257 120.442 0.0351257H5.32636C1.95508 0.0351257 -0.304154 3.60622 1.24102 6.6036C11.5773 26.7422 31.4538 41.1437 54.924 43.8367C56.036 51.7985 57.4993 59.6432 59.4424 67.3122C63.6097 83.8329 69.6733 99.6043 77.3172 114.427C94.279 144.916 125.873 163.685 160.979 163.685L218.993 163.673C227.105 163.673 234.609 167.279 239.572 173.567C244.512 179.831 246.268 187.945 244.395 195.837L235.206 234.404C234.386 237.835 235.17 241.675 237.828 243.982C240.216 246.066 243.388 246.652 246.303 245.563C267.56 237.601 294.32 211.854 299.775 165.5L300.243 161.472L304.223 160.676C335.536 154.435 362.705 139.015 383.343 117.6C383.401 117.542 383.483 117.507 383.565 117.507C383.565 117.507 493.986 117.436 494.045 117.331C494.045 89.7106 471.663 67.3122 444.038 67.3122ZM418.027 99.136C414.106 99.136 410.922 95.9513 410.922 92.0289C410.922 88.1066 414.106 84.9218 418.027 84.9218C421.949 84.9218 425.133 88.1066 425.133 92.0289C425.133 95.9513 421.949 99.136 418.027 99.136Z" />
    <path class="logo-bottom" d="M165.687 206.257C183.999 216.631 203.927 224.452 224.991 229.299L229.417 210.718H198.904C187.816 210.718 176.611 209.114 165.687 206.257Z" />
    <path class="logo-bottom" d="M219.031 174.843L161.004 174.855C142.961 174.855 125.738 170.417 110.552 162.315C113.315 165.348 116.184 168.286 119.111 171.167C140.947 188.46 170.324 199.56 198.881 199.56H232.063L233.561 193.261C234.639 188.706 233.655 184.058 230.845 180.498C228.023 176.892 223.715 174.843 219.031 174.843Z" />
    <path class="logo-bottom" d="M383.43 219.125V219.008C359.264 231.793 332.885 240.247 305.744 243.912C384.8 243.912 442.664 207.405 481.489 152.738C485.868 146.146 490.001 139.343 493.783 132.294L494.521 130.925H475.881C453.553 168.802 421.296 199.138 383.43 219.125Z" />
    <path class="logo-bottom" d="M429.456 117.507H398.839L398.827 117.518H429.456V117.507Z" />
    <path class="logo-bottom" d="M310.638 170.804C309.233 180.475 306.915 189.28 303.976 197.3C343.984 191.106 380.655 172.15 409.33 142.352C412.889 138.652 416.249 134.823 419.457 130.901H386.112C365.633 150.173 339.886 164.235 310.638 170.804Z" />
    <path class="logo-bottom" d="M417.373 150.103C385.35 183.367 343.914 203.857 298.86 209.231C293.837 219.336 287.737 227.836 281.18 234.802C357.672 232.672 424.597 191.68 462.873 130.901H433.578C428.613 137.575 423.251 144.003 417.373 150.103Z" />
    <path class="logo-bottom" d="M470.682 117.507H442.828C442.828 117.507 442.828 117.507 442.828 117.518H470.261C470.261 117.518 470.436 117.518 470.682 117.507Z" />
</svg>
